<svg xmlns="http://www.w3.org/2000/svg" viewBox="0 0 140 140"><defs><style>.cls-1{fill:#fff;}.cls-2{fill:#e24840;}.cls-3{fill:#66d87e;}</style></defs><g id="Layer_2" data-name="Layer 2"><g id="Layer_1-2" data-name="Layer 1"><rect class="cls-1" width="140" height="140" rx="23.3"/><rect class="cls-2" x="14" y="14" width="112" height="22.4" rx="11.2"/><rect class="cls-3" x="42" y="43.87" width="84" height="22.4" rx="11.2"/><rect class="cls-3" x="14" y="73.73" width="112" height="22.4" rx="11.2"/><rect class="cls-3" x="14" y="103.6" width="64.4" height="22.4" rx="11.2"/><path class="cls-3" d="M33.12,47.15a11.2,11.2,0,1,0,3.28,7.92A11.16,11.16,0,0,0,33.12,47.15ZM28.7,56.57h-2v2a1.5,1.5,0,0,1-3,0v-2h-2a1.5,1.5,0,1,1,0-3h2v-2a1.5,1.5,0,0,1,3,0v2h2a1.5,1.5,0,0,1,0,3Z"/><rect class="cls-2" x="84" y="103.6" width="42" height="22.4" rx="11.2"/></g></g></svg>